<svg xmlns="http://www.w3.org/2000/svg" width="1041" height="1222" viewBox="0 0 1041 1222" fill="none"><path d="M367.801 817.5L430.3 388.3C432.1 375.7 443 366.4 455.8 366.7L1000.1 376C1015.3 376.3 1026.9 389.8 1024.7 404.9L948.701 928.4C946.601 942.7 933 952.4 918.8 949.6L388 845.9C374.7 843.4 365.901 830.8 367.801 817.5Z" fill="white" stroke="#060715" stroke-width="4.5004" stroke-miterlimit="10"></path><path d="M408.501 750.9L458.401 408.1C459.301 402 464.601 397.5 470.701 397.6L979.401 406.3C986.801 406.4 992.4 413 991.3 420.3L930.901 836.3" fill="white"></path><path d="M408.501 750.9L458.401 408.1C459.301 402 464.601 397.5 470.701 397.6L979.401 406.3C986.801 406.4 992.4 413 991.3 420.3L930.901 836.3" stroke="#060715" stroke-width="4.5004" stroke-miterlimit="10"></path><path d="M920.001 948.401L932.501 950.401C946.601 953.201 960.2 943.501 962.3 929.301L1038 407.301C1040.2 392.301 1031.4 377 1012.5 377H1001.8" fill="white"></path><path d="M920.001 948.401L932.501 950.401C946.601 953.201 960.2 943.501 962.3 929.301L1038 407.301C1040.2 392.301 1031.4 377 1012.5 377H1001.8" stroke="#060715" stroke-width="4.5004" stroke-miterlimit="10"></path><path d="M378.401 745.8L961.201 841.1" stroke="#060715" stroke-width="4.5004" stroke-miterlimit="10"></path><path d="M704.6 907.4C704.6 919.5 696.5 930.2 684.8 933.4L571.001 964.8C564.901 966.3 564.9 974.9 570.9 976.6L699.001 1011.1C705.301 1012.8 712 1012.4 718.1 1010L815.3 971.5C826.9 966.9 834.501 955.7 834.501 943.2V932.7" fill="white"></path><path d="M704.6 907.4C704.6 919.5 696.5 930.2 684.8 933.4L571.001 964.8C564.901 966.3 564.9 974.9 570.9 976.6L699.001 1011.1C705.301 1012.8 712 1012.4 718.1 1010L815.3 971.5C826.9 966.9 834.501 955.7 834.501 943.2V932.7" stroke="#060715" stroke-width="4.5004" stroke-miterlimit="10"></path><path d="M567.901 975V979.401C567.901 979.401 567.3 987.201 572.3 989.101L700.401 1023.6C706.701 1025.3 713.401 1024.9 719.501 1022.5L826.001 978.201C837.601 973.601 845.201 962.401 845.201 949.901V934" fill="white"></path><path d="M567.901 975V979.401C567.901 979.401 567.3 987.201 572.3 989.101L700.401 1023.6C706.701 1025.3 713.401 1024.9 719.501 1022.5L826.001 978.201C837.601 973.601 845.201 962.401 845.201 949.901V934" stroke="#060715" stroke-width="4.5004" stroke-miterlimit="10"></path><path d="M561.582 1096.87C563.623 1028.02 440.594 968.521 286.789 963.961C132.984 959.401 6.64623 1011.51 4.6054 1080.36C2.56457 1149.2 125.594 1208.7 279.399 1213.26C433.204 1217.82 559.542 1165.71 561.582 1096.87Z" fill="#9AFF1A" stroke="#060715" stroke-width="5.3228" stroke-miterlimit="10"></path><path d="M551 750.5C512.7 779.4 475.5 798.6 443 811.3C442.6 806.3 442.1 801.7 441.7 797.9C441 785.7 439.6 755.3 442.5 731.4L502.5 645.1L452.4 645.4C452.1 645.2 451.9 645.1 451.9 645.1H309.8C239.4 645.1 182.3 702.2 182.3 772.6L183 803.5C183 803.5 185 868 59.0002 868C59.0002 868 68.4003 1017.9 217.3 1051.1L203.4 1101H279C278.6 1100.3 279 1075.7 279.3 1057.5C279.4 1057.5 279.5 1057.5 279.6 1057.5C282 1057.5 284.3 1057.5 286.6 1057.4C286.9 1075.6 287.2 1100.3 286.9 1101H362.5L347 1045.4C384.8 1029.9 408.5 1001.1 423 968C446.7 965.5 468.1 959.3 478.5 946.1C488.9 932.9 493.4 920.7 494.9 910.3C508.1 904 518.5 897.1 524.2 889.9C543.6 865.2 543 838.7 540.1 822.7C566.3 785.4 551 750.5 551 750.5Z" fill="#060715"></path><path d="M399.028 793.222C418.295 789.904 429.675 762.594 424.445 732.223C419.216 701.853 399.357 679.922 380.089 683.24C360.822 686.557 349.442 713.867 354.672 744.238C359.902 774.609 379.76 796.539 399.028 793.222Z" fill="white"></path><path d="M396.533 778.735C410.739 776.289 419.132 756.171 415.28 733.801C411.428 711.432 396.789 695.28 382.584 697.727C368.378 700.173 359.985 720.29 363.837 742.66C367.689 765.03 382.328 781.181 396.533 778.735Z" fill="#060715"></path><path d="M624.5 18.8008C633.8 18.8008 640.6 26.8008 639.7 36.7008L600.2 458.401C599.3 468.301 591 476.301 581.6 476.301L183.8 475.701C174.5 475.701 167.7 467.701 168.6 457.801" fill="white"></path><path d="M624.5 18.8008C633.8 18.8008 640.6 26.8008 639.7 36.7008L600.2 458.401C599.3 468.301 591 476.301 581.6 476.301L183.8 475.701C174.5 475.701 167.7 467.701 168.6 457.801" stroke="#060715" stroke-width="3" stroke-miterlimit="10"></path><path d="M564.001 460.501L170.9 459.901C160.3 459.901 152.5 450.701 153.5 439.401L192.5 22.7008C193.6 11.4008 203 2.30078 213.7 2.30078L606.8 2.90076C617.4 2.90076 625.201 12.1008 624.201 23.4008L585.201 440.101C584.101 451.401 574.601 460.501 564.001 460.501Z" fill="white" stroke="#060715" stroke-width="3.4545" stroke-miterlimit="10"></path><path d="M227.828 34.8125C230.472 30.3447 229.379 24.8074 225.386 22.4447C221.394 20.082 216.014 21.7885 213.37 26.2563C210.726 30.7241 211.819 36.2613 215.812 38.624C219.804 40.9868 225.184 39.2803 227.828 34.8125Z" fill="#AF34DD" stroke="#060715" stroke-width="3.528" stroke-miterlimit="10"></path><path d="M259.886 34.8304C262.53 30.3626 261.437 24.8254 257.444 22.4626C253.452 20.0999 248.072 21.8064 245.428 26.2742C242.784 30.742 243.877 36.2791 247.87 38.6418C251.862 41.0046 257.242 39.2982 259.886 34.8304Z" fill="#9AFF1A" stroke="#060715" stroke-width="3.528" stroke-miterlimit="10"></path><path d="M292.03 34.8992C294.674 30.4314 293.58 24.8943 289.588 22.5315C285.595 20.1688 280.216 21.8752 277.571 26.343C274.927 30.8107 276.021 36.348 280.013 38.7107C284.006 41.0735 289.385 39.3669 292.03 34.8992Z" fill="#2DE283" stroke="#060715" stroke-width="3.528" stroke-miterlimit="10"></path><path d="M590.201 39.7007L315.9 39.3007C311.4 39.3007 308.2 35.4007 308.6 30.7007C309 26.0007 313 22.1006 317.5 22.1006L591.8 22.5006C596.3 22.5006 599.5 26.4006 599.1 31.1006C598.7 35.9006 594.701 39.7007 590.201 39.7007Z" stroke="#060715" stroke-width="3.4545" stroke-miterlimit="10"></path><path d="M762.6 597.501L637.4 509.201L643.9 662.301L684.7 615.901L709.4 690.001L750.4 667.601L701.5 606.701L762.6 597.501Z" fill="#060715"></path><path d="M660.2 208.2L580.7 128.7C575.7 123.7 575.7 115.5 580.7 110.4L607.7 83.4004C612.7 78.4004 620.9 78.4004 626 83.4004L705.5 162.9C710.5 167.9 710.5 176.1 705.5 181.2L678.5 208.2C673.4 213.3 665.2 213.3 660.2 208.2Z" fill="#060715"></path><path d="M652.4 221.4L567.5 136.5C563.7 132.7 557.9 131.7 553.1 133.9L485.4 164.5C482.2 165.9 479.7 168.6 478.6 171.9L423.9 324.6C422.2 329.3 423.4 334.5 426.9 338.1C431.9 343.1 440.1 343.1 445.2 338.1L516.4 266.9C518 265.3 520.5 265.3 522 266.9C523.6 268.5 523.6 271 522 272.5L450.8 343.701C445.8 348.701 445.8 356.9 450.8 362C454.3 365.5 459.6 366.7 464.3 365L617 310.3C620.3 309.1 623 306.7 624.4 303.5L655 235.8C657.2 230.9 656.2 225.2 652.4 221.4Z" fill="#060715"></path><path d="M405 384C376.8 384 336.4 373.3 324.9 331.2C311.8 283.3 332.7 256.3 351.1 232.4C363.5 216.4 375.2 201.2 377.1 180.2C382.6 120.2 338.1 105.7 336.2 105.1C330.6 103.4 327.4 97.4005 329.2 91.8005C330.9 86.2005 336.8 83.0005 342.4 84.7005C343 84.9005 405.4 104.4 398.3 182.1C395.8 209.3 381.6 227.7 367.9 245.4C350.3 268.2 335 287.9 345.4 325.5C357.4 369.4 413.3 362.3 415.7 361.9C421.5 361.1 426.9 365.2 427.7 371C428.5 376.8 424.5 382.2 418.7 383C414.6 383.7 410 384 405 384Z" stroke="#060715" stroke-width="4.5004" stroke-miterlimit="10"></path></svg>